<svg xmlns="http://www.w3.org/2000/svg" enable-background="new -1095.842 -117.212 3000 3000" viewBox="-1095.842 -117.212 3000 3000" id="Homedeliveryservice"><path fill="#a60303" d="M1470.634,2192.708H-594.714c21.797-145.143,99.98-266.606,206.025-329.585
		c39.247-23.561,82.454-39.029,127.881-44.694c28.076-115.827,76.741-220.953,140.847-309.262
		c123.417-169.874,304.252-276.978,505.756-276.978c277.424,0,515.543,203.147,618.955,493.434
		c13.064-1.618,26.263-2.848,39.619-2.848c195.399,0,353.639,191.966,353.639,428.596c0,2.398,0,4.406-0.156,6.475
		C1424.017,2164.501,1448.525,2176.521,1470.634,2192.708z" class="colordcf4e6 svgShape"></path><path fill="#e5e093" d="M784.296 2192.708h755.57c-19.942-35.989-62.318-24.831-107.939-25.791-8.527-26.905-32.155-26.341-83.055-18.055 64.484-58.807 44.366-116.58-68.094-78.924 128.452-174.871-70.674-214.836-100.079-218.334-37.052-4.419-207.379 22.818-117.101 204.918-109.365-45.391-139.285 8.261-56.746 102.662C928.001 2162.881 833.521 2180.2 784.296 2192.708zM-731.549 2192.708H588.146c-85.607-19.885-262.987-43.433-342.783-45.112-14.915-47.061-56.244-46.073-145.276-31.581 112.793-102.861 77.602-203.916-119.106-138.049 224.681-305.875-123.619-375.781-175.053-381.899-64.81-7.73-362.736 39.912-204.828 358.433-191.295-79.395-243.629 14.45-99.258 179.57C-636.08 2140.536-685.018 2156.719-731.549 2192.708z" class="color93e5b6 svgShape"></path><path fill="#ece254" d="M392.262,2197.032c-41.126,0-72.253-33.456-69.391-74.581L430.124,581.615
		c2.863-41.126,38.648-74.586,79.773-74.586h746.393c41.125,0,72.257,33.46,69.395,74.586l-107.252,1540.836
		c-2.863,41.125-38.652,74.581-79.778,74.581H392.262z" class="color549bec svgShape"></path><path fill="#fffccd" d="M396.053,2142.559c-11.087,0-19.48-9.021-18.709-20.108L484.597,581.615
		c0.772-11.092,10.421-20.113,21.508-20.113h746.393c11.092,0,19.485,9.021,18.713,20.113l-107.251,1540.836
		c-0.772,11.087-10.421,20.108-21.513,20.108H396.053z" class="colorcdeeff svgShape"></path><path fill="#ffffff" d="M1013.583 885.116H574.316c-13.26 0-24.249 10.282-25.13 23.511l-15.051 225.994c-.968 14.535 10.562 26.858 25.13 26.858h439.268c13.26 0 24.248-10.281 25.13-23.511l15.052-225.991C1039.682 897.439 1028.152 885.116 1013.583 885.116zM1123.115 1294.106H683.847c-13.26 0-24.248 10.282-25.13 23.511l-15.052 225.994c-.968 14.535 10.562 26.858 25.13 26.858h439.268c13.26 0 24.249-10.281 25.13-23.511l15.051-225.991C1149.212 1306.43 1137.683 1294.106 1123.115 1294.106z" opacity=".5" class="colorffffff svgShape"></path><g fill="#8c3503" class="color000000 svgShape"><path fill="#943600" d="M738.251,2172.832l27.531-414.432l95.219-302.557c0,0,60.221-87.823,7.996-186.192
						c0,0-197.708-0.919-216.151,16.575c-18.443,17.497-33.361,474.184-33.361,474.184l34.025,412.423H738.251z" class="color009444 svgShape"></path><path fill="#7c3309" d="M861.015,1455.882l-95.265,302.491l-27.49,414.449h-84.741l-23.226-281.62
						c31.574-18.418,103.794-62.604,101.253-80.115c-3.266-22.319-35.566-39.829-42.824-50.355
						c-7.349-10.524,47.633-46.906,44.457-47.996c-3.266-1.088-33.933-6.987-51.806-24.951
						c-17.783-18.055,46.09-11.159,52.622-33.75c6.442-22.682,5.626-247.418,0-246.419c-5.081,0.908-67.774-23.772-94.176-39.741
						c3.992-45.364,8.437-77.211,13.064-81.656c18.418-17.51,216.117-16.601,216.117-16.601
						C921.26,1368.057,861.015,1455.882,861.015,1455.882z" class="color097c3a svgShape"></path><path fill="#943600" d="M866.965,2172.832h84.279l-43.492-407.309l55.122-317.13c0,0,28.817-75.788-13.851-180.623
						c0,0-169.712-15.208-186.557,3.832c-16.844,19.04,3.315,486.797,3.315,486.797L866.965,2172.832z" class="color009444 svgShape"></path><path fill="#7c3309" d="M962.904,1448.353l-55.163,317.188l43.459,407.282h-84.196L765.75,1758.374
						c0,0-0.962-10.464-3.684-95.478c3.72-7.711,146.313,28.255,141.958-13.751c-4.264-42.099,42.55-255.501,13.425-268.384
						c-18.327-8.167-102.07,12.156-161.588,28.397c-0.544-73.492,0.908-131.104,6.623-137.545
						c16.786-19.054,186.539-3.812,186.539-3.812C991.665,1372.594,962.904,1448.353,962.904,1448.353z" class="color097c3a svgShape"></path><path fill="#c1bd7c" d="M656.911,914.884l-53.916,71.497l-283.346-21.24l-6.293,62.932c0,0,263,52.103,287.757,46.671
						c24.758-5.431,124.096-71.388,124.096-71.388L656.911,914.884z" class="colorc18c7c svgShape"></path><path fill="#f28705" d="M666.473,834.5c0,0-25.531,103.186-44.226,103.186c-6.795,0,27.085,76.81,63.364,78.285
						c35.347,1.438,59.347-74.573,59.347-74.573s24.222-76.662,13.935-99.605C743.296,807.005,666.473,834.5,666.473,834.5z" class="colorffc439 svgShape"></path><path fill="#943600" d="M634.151,1338.488c22.776,39.73,158.331,24.435,248.783-10.537c24.594-9.47,45.776-20.407,60.54-32.128
					c13.399-10.536,21.409-21.763,21.636-33.031c1.706-69.528-78.311-381.43-177.244-468.746
					c-58.564-1.687-91.455,10.495-91.455,10.495s-21.433,105.229-40.599,222.785c-6.109,37.447-11.917,76.147-16.726,113.114
					C626.817,1233.589,621.12,1315.609,634.151,1338.488z" class="color009444 svgShape"></path><path fill="#7c3309" d="M714.195,802.146c0,0-16.609,445.714,12.496,555.948C726.692,1358.093,672.973,1243.289,714.195,802.146
					z" class="color097c3a svgShape"></path><path fill="#f28705" d="M882.934 1327.951c24.594-9.47 45.776-20.407 60.54-32.128 17.966-91.901-110.166-412.59-110.166-412.59s-83.374-11.39-28.688 33.517C854.827 957.983 879.237 1275.146 882.934 1327.951zM786.029 1247.86c0 0 26.633 54.934 55.161 61.574C841.189 1309.434 791.684 1333.581 786.029 1247.86z" class="colorffc439 svgShape"></path><g fill="#8c3503" class="color000000 svgShape"><polygon fill="#d7d28e" points="750.804 714.85 775.472 783.747 711.061 818.57 701.629 811.293 691.405 747.326" class="colord7a28e svgShape"></polygon><path fill="#f28705" d="M711.996,813.461c26.419-1.089,40.101-41.124,58.426-43.819c0,0,16.906,21.709,17.445,24.404
				c0.539,2.695-36.381,45.544-47.7,50.664c-11.318,5.121-28.848-23.47-28.848-23.47s-0.257,20.506-17.504,15.924
				c-17.247-4.581-1.487-39.142-1.487-39.142l6.218-6.021C698.545,792.001,702.445,813.854,711.996,813.461z" class="colorffc439 svgShape"></path><path fill="#d7d28e" d="M754.188,734.265c0,0,39.197-77.072-18.71-116.88c-57.907-39.807-99.395,6.105-98.23,28.648
				c1.635,31.662-12.942,67.665-12.942,67.665s-8.396,42.031,10.092,57.044c18.487,15.014,69.703-5.195,69.703-5.195
				L754.188,734.265z" class="colord7a28e svgShape"></path><path fill="#5c2c11" d="M665.373 683.271c-.453-1.303-6.204 19.073-9.651 21.831-3.447 2.757 10.341 7.813 12.179 7.584 1.839-.23-7.866-7.814-7.866-7.814S667.211 688.556 665.373 683.271zM646.903 667.648c.142 4.6-2.165 8.405-5.153 8.497-2.988.093-5.524-3.562-5.666-8.163-.142-4.6 2.164-8.405 5.152-8.497C644.224 659.392 646.761 663.048 646.903 667.648zM637.224 646.079c0 0-.964 3.576-.243 4.607.721 1.032 4.72-.147 8.874 2.457 4.153 2.604 7.823 4.587 7.823 4.587s3.671-3.918 1.057-7.236C652.119 647.176 637.733 642.864 637.224 646.079z" class="color11405c svgShape"></path><path fill="#a60303" d="M640.85,665.687c-0.082,1.554-1.409,2.748-2.964,2.665c-1.555-0.082-2.748-1.409-2.665-2.964
					c0.083-1.554,1.409-2.747,2.964-2.665C639.738,662.805,640.932,664.132,640.85,665.687z" class="colordcf4e6 svgShape"></path><path fill="#5c2c11" d="M694.769 671.301c.142 4.601-2.165 8.405-5.153 8.497-2.988.093-5.524-3.562-5.666-8.163-.142-4.6 2.164-8.405 5.152-8.498C692.089 663.045 694.626 666.701 694.769 671.301zM685.09 649.732c0 0-.964 3.575-.243 4.606.721 1.032 4.72-.147 8.874 2.457 4.153 2.604 7.823 4.587 7.823 4.587s3.671-3.918 1.057-7.236C699.985 650.829 685.598 646.518 685.09 649.732z" class="color11405c svgShape"></path><path fill="#a60303" d="M688.715,669.34c-0.082,1.554-1.409,2.748-2.964,2.665c-1.555-0.082-2.748-1.409-2.665-2.964
					c0.083-1.554,1.409-2.747,2.964-2.665C687.604,666.459,688.797,667.786,688.715,669.34z" class="colordcf4e6 svgShape"></path><g fill="#8c3503" class="color000000 svgShape"><path fill="#5c2c11" d="M637.389,738.649c-0.776,0.909-0.308,3.106,2.158,5.295c2.354,2.238,7.095,4.055,12.103,3.501
					c10.132-1.332,14.747-8.308,13.075-10.14c-1.582-2.074-7.694,0.114-14.034,0.779
					C644.618,738.971,639.335,736.69,637.389,738.649z" class="color11405c svgShape"></path></g><g fill="#8c3503" class="color000000 svgShape"><path fill="#c1bd7c" d="M632.775,769.493c-0.421,1.071,3.02,3.891,9.598,6.122c6.519,2.326,16.185,3.87,26.71,3.072
					c21.241-1.535,36.248-10.86,35.018-13.14c-1.06-2.375-16.443,2.412-35.7,3.755C649.166,771.034,633.813,766.926,632.775,769.493
					z" class="colorc18c7c svgShape"></path></g><g fill="#8c3503" class="color000000 svgShape"><path fill="#5c2c11" d="M765.729,645.518c-3.249-0.569-6.487-1.244-9.735-1.831c4.555,4.648,5.867,30.755-4.326,35.894
				c-8.399,4.232,4.057,56.852,4.057,56.852s-2.197-11.008,22.229-12.776c19.068-1.38,14.02-25.799,14.02-25.799
				c25.268-8.11,13.298-38.937,13.298-38.937S791.5,650.031,765.729,645.518z" class="color11405c svgShape"></path><path fill="#f28705" d="M807.992,666.476l-48.114-6.619l-130.801-17.933l-90.028-12.451c0,0-5.924-5.055,15.911-4.438
				c21.905,0.72,73.029-1.084,73.029-1.084s39.687-100.219,115.846-82.537c7.616,1.748,14.264,4.446,20.19,7.81
				c19.655,11.071,30.795,29.711,36.985,48.918C811.929,631.509,807.992,666.476,807.992,666.476z" class="colorffc439 svgShape"></path><path fill="#d7d28e" d="M735.263,655.783c0,0,6.047-8.818,13.857-9.448c7.81-0.63,19.049,7.93,14.288,24.318
				c-4.76,16.388-7.359,28.074-18.823,27.262C733.121,697.102,734.613,656.65,735.263,655.783z" class="colord7a28e svgShape"></path><path fill="#5c2c11" d="M750.997,652.034c0.886,0.771-3.499,6.299-5.666,13.987c-0.121,0.413-0.17,0.801-0.262,1.204
				c0.415-0.186,0.845-0.406,1.308-0.767c2.25-1.502,4.275-3.289,5.082-2.719c0.767,0.481,0.01,3.441-3.182,5.649
				c-1.089,0.769-2.486,1.132-3.692,1.075c-0.362,5.543,1.47,9.623,0.611,10.125c-0.379,0.248-1.951-0.953-3.169-3.786
				c-1.292-2.769-1.87-7.293-0.645-11.834C744.033,655.844,750.335,651.218,750.997,652.034z" class="color11405c svgShape"></path><path fill="#bfb304" d="M750.331 638.326c-28.262-1.415-122.342-14.376-122.342-14.376s39.687-100.219 115.846-82.537c7.616 1.748 14.264 4.446 20.19 7.81-12.002 4.819-29.353 7.098-41.052 3.766-27.573-7.954-65.231 33.709-55.517 53.279C677.245 625.842 750.331 638.326 750.331 638.326zM805.884 649.974c-.151.604-18.57 2.833-16.648-6.542 1.922-9.375 16.438-9.292 16.438-9.292S806.907 645.88 805.884 649.974z" class="colordba12c svgShape"></path></g></g><g fill="#8c3503" class="color000000 svgShape"><polygon fill="#f28705" points="154.628 882.402 311.139 849.151 467.649 872.115 313.895 925.136" class="colorffc439 svgShape"></polygon><polygon fill="#bfb304" points="318.149 1084.499 470.475 1047.304 467.649 872.115 313.356 904.946" class="colordba12c svgShape"></polygon><polygon fill="#fffccd" points="224.66 867.524 273.63 857.41 412.334 882.978 414.018 918.178 394.742 924.135 391.168 918.396 389.297 926.532 374.579 931.62 374.089 893.922" opacity=".5" class="colorcdeeff svgShape"></polygon><polygon fill="#fffccd" points="391.306 1066.699 391.218 1039.369 400.667 1037.534 402.748 1040.873 403.835 1036.2 428.552 1029.187 431.452 1056.872" opacity=".5" class="colorcdeeff svgShape"></polygon><polygon fill="#f28705" points="154.628 882.402 159.659 1062.357 318.149 1084.499 313.356 904.946" class="colorffc439 svgShape"></polygon><path fill="#bfb304" d="M154.628,882.402l158.728,22.544c0,0-49.522,5.826-82.41,0
			C198.058,899.12,154.628,882.402,154.628,882.402z" class="colordba12c svgShape"></path></g><path fill="#d7d28e" d="M712.72,931.62l-104.44,84.151l-243.327-21.626l-17.705,48.91c0,0,258.022,65.593,283.443,60.016
		c25.422-5.577,147.596-82.417,147.596-82.417L712.72,931.62z" class="colord7a28e svgShape"></path><path fill="#f28705" d="M806.836,813.719c0,0-85.534,93.817-140.835,130.248c-5.826,3.838,52.501,101.348,89.754,102.863
		c36.297,1.476,103.498-101.989,103.498-101.989s24.874-78.72,14.31-102.28C857.546,806.839,806.836,813.719,806.836,813.719z" class="colorffc439 svgShape"></path><g fill="#8c3503" class="color000000 svgShape"><path fill="#d7d28e" d="M325.023,942.081c-8.537,2.226-6.259,10.911-6.259,10.911l6.959,26.562l-68.819-9.545
			c0,0-4.188,6.324-0.098,9.729c1.871,1.558,35.119,9.69,35.119,9.69l-45.961-6.343c0,0-3.533,7.407,0.947,9.206
			c2.142,0.861,43.102,13.462,43.102,13.462l-42.64-6.713c0,0,0.516,8.92,2.171,9.592c8.534,3.466,39.92,12.838,39.92,12.838
			l-30.928-6.118c0,0-2.489,7.381,3.971,8.827c7.733,1.73,44.082,14.248,56.535,14.634c16.313,0.505,63.241,9.13,63.241,9.13
			s10.546-43.272,11.758-47.603c-6.38-1.288-29.087-6.194-29.087-6.194C349.975,981.083,344.59,961.799,325.023,942.081z" class="colord7a28e svgShape"></path><path fill="#c1bd7c" d="M298.389 990.074c-.116.721-4.722.581-10.29-.312-5.567-.892-9.986-2.2-9.871-2.92s4.723-.581 10.29.311C294.085 988.046 298.505 989.354 298.389 990.074zM297.268 1006.785c-.148.715-4.47.423-9.653-.651-5.183-1.075-9.266-2.525-9.117-3.239.148-.715 4.47-.423 9.653.651C293.334 1004.62 297.416 1006.07 297.268 1006.785zM297.528 1022.488c-.128.718-3.745.678-8.078-.089s-7.744-1.972-7.617-2.691c.128-.719 3.743-.679 8.078.089C294.244 1020.565 297.654 1021.77 297.528 1022.488z" class="colorc18c7c svgShape"></path><path fill="#c1bd7c" d="M297.952 1016.023c.674.413-.159 2.602-.245 5.149-.152 2.561.512 4.684-.079 5.093-.568.494-2.726-1.716-2.561-5.212C295.253 1017.563 297.438 1015.618 297.952 1016.023zM297.837 1001.256c.674.412-.16 2.602-.245 5.149-.153 2.56.512 4.684-.08 5.092-.568.495-2.726-1.716-2.56-5.212C295.138 1002.796 297.324 1000.85 297.837 1001.256zM298.766 985.471c.674.413-.159 2.602-.245 5.149-.152 2.561.512 4.684-.079 5.093-.568.494-2.726-1.716-2.56-5.212C296.066 987.011 298.252 985.065 298.766 985.471z" class="colorc18c7c svgShape"></path></g></g><g fill="#8c3503" class="color000000 svgShape"><path fill="#f28705" d="M-329.378,869.29c0,0-89.352,101.55-89.352,135.824c0,34.273,60.561,58.247,60.561,58.247l40.434-12.91
		c0,0,75.763-181.76,69.6-195.934C-254.297,840.342-329.378,869.29-329.378,869.29z" class="colorffc439 svgShape"></path><path fill="#d7d28e" d="M-393.851,985.217c0,0-49.034,95.738-49.034,119.182s271.368,200.248,271.368,200.248l17.462-50.443
		l-177.741-161.54l29.689-67.398L-393.851,985.217z" class="colord7a28e svgShape"></path><path fill="#bfb304" d="M-316.249,893.057c-69.036,106.307-102.481,103.577-102.481,112.057c0,34.273,60.562,58.247,60.562,58.247
		l40.434-12.91C-317.734,1050.451-307.999,880.354-316.249,893.057z" class="colordba12c svgShape"></path><polygon fill="#d7d28e" points="-242.159 785.727 -265.798 851.745 -199.13 877.82 -185.242 816.846" class="colord7a28e svgShape"></polygon><path fill="#bfb304" d="M-279.155,861.87c0.866-10.985,4.885-32.123,14.857-34.974c9.971-2.85,74.919,5.816,79.057,15.638
				c4.137,9.822-3.715,28.399-3.715,28.399L-279.155,861.87z" class="colordba12c svgShape"></path><path fill="#d7d28e" d="M-243.23,797.864c0,0-14.307-59.667,30.207-90.267c44.514-30.601,76.405,4.693,75.51,22.022
				c-1.258,24.338,16.89,44.624,16.89,44.624l-6.942,7.391c0,0,6.454,32.308-7.757,43.849c-14.212,11.541-53.581-3.993-53.581-3.993
				L-243.23,797.864z" class="colord7a28e svgShape"></path><path fill="#5c2c11" d="M-141.382 746.234c-.109 3.536 1.664 6.461 3.961 6.531 2.297.071 4.246-2.738 4.356-6.275.109-3.536-1.664-6.46-3.961-6.532C-139.323 739.888-141.273 742.698-141.382 746.234zM-133.942 729.654c0 0 .742 2.748.187 3.541-.554.794-3.629-.113-6.822 1.889-3.193 2.002-6.014 3.526-6.014 3.526s-2.821-3.011-.812-5.562C-145.392 730.497-134.333 727.182-133.942 729.654z" class="color11405c svgShape"></path><path fill="#a60303" d="M-136.729,744.726c0.063,1.195,1.083,2.112,2.278,2.048c1.195-0.063,2.112-1.082,2.049-2.278
					c-0.064-1.194-1.083-2.112-2.278-2.049C-135.874,742.511-136.792,743.531-136.729,744.726z" class="colordcf4e6 svgShape"></path><path fill="#c1bd7c" d="M-145.412,770.247c2.578,5.519,1.39,11.525-2.655,13.414c-4.045,1.89-9.414-1.052-11.993-6.571
				c-2.578-5.519-1.39-11.525,2.655-13.414C-153.36,761.786-147.991,764.728-145.412,770.247z" class="colorc18c7c svgShape"></path><path fill="#5c2c11" d="M-205.479 734.232c-.681.592 2.689 4.842 4.355 10.752.093.317.131.616.201.926-.319-.143-.649-.312-1.005-.59-1.73-1.155-3.287-2.529-3.906-2.09-.589.37-.009 2.645 2.446 4.343.837.59 1.911.87 2.838.826.278 4.261-1.13 7.397-.47 7.783.291.19 1.5-.733 2.436-2.91.993-2.128 1.438-5.605.496-9.097C-200.126 737.16-204.97 733.604-205.479 734.232zM-126.16 797.521c.597.699.237 2.388-1.658 4.07-1.809 1.721-5.454 3.117-9.304 2.692-7.788-1.024-11.336-6.386-10.05-7.795 1.216-1.594 5.914.088 10.788.599C-131.716 797.769-127.655 796.014-126.16 797.521z" class="color11405c svgShape"></path><g fill="#8c3503" class="color000000 svgShape"><path fill="#c1bd7c" d="M-134.074,824.523c0.323,0.823-2.321,2.991-7.378,4.706c-5.011,1.788-12.442,2.975-20.533,2.362
					c-16.328-1.18-27.864-8.348-26.919-10.101c0.815-1.825,12.64,1.854,27.443,2.886
					C-146.674,825.707-134.871,822.55-134.074,824.523z" class="colorc18c7c svgShape"></path></g><g fill="#8c3503" class="color000000 svgShape"><path fill="#5c2c11" d="M-192.405,739.622c26.537,1.927,20.655-21.149,44.138-19.304s35.26-50.405,4.549-67.723
				c-30.712-17.318-49.486-13.729-53.732-2.038c-0.659-8.269-17.888-39.898-45.529-23.213
				c-35.98,21.718-23.638,56.284-23.638,56.284s-44.577-53.817-85.504-31.679c-40.928,22.139,11.05,67.221,11.05,67.221
				s-61.061,32.3-27.96,40.208c33.101,7.908,87.666-15.702,87.666-15.702s-17.049,32.093,18.941,40.537
				c0,0-7.188,25.424,19.97,26.861c34.79,1.841,40.202-19.915,40.202-19.915s9.197-21.566-2.764-25.974
				c-15.193-5.598-12.456-35.167-5.242-37.957C-196.21,721.795-192.405,739.622-192.405,739.622z" class="color11405c svgShape"></path><path fill="#f28705" d="M-281.367,743.677c-0.965-1.828,1.856-5.362,6.259-9.876c4.261-4.649,9.799-10.826,11.89-18.09
					c1.098-3.635,1.039-7.319,0.749-10.88c-0.391-3.576-1.426-6.932-2.235-9.893c-1.89-5.856-3.359-9.917-1.915-11.309
					c1.394-1.385,5.926,0.491,10.822,6.277c2.304,2.973,4.832,6.877,6.338,12.021c1.407,5.097,2.025,11.438,0.164,17.717
					c-1.88,6.168-5.286,11.342-9.024,14.853c-3.654,3.732-7.551,5.913-10.822,7.614
					C-275.89,745.058-280.489,745.377-281.367,743.677z" class="colorffc439 svgShape"></path></g><path fill="#f28705" d="M-135.186,724.229c-7.078,1.133-10.993,10.885-9.1,22.709
			c1.899,11.863,8.661,19.906,15.739,18.773c7.039-1.126,10.954-10.879,9.055-22.742
			C-121.384,731.146-128.147,723.103-135.186,724.229z M-129.18,761.757c-4.705,0.753-9.665-6.159-11.152-15.452
			c-1.481-9.253,1.073-17.368,5.778-18.121c4.666-0.747,9.626,6.165,11.107,15.418C-121.959,752.896-124.514,761.01-129.18,761.757z
			" class="colorffc439 svgShape"></path><g fill="#8c3503" class="color000000 svgShape"><polygon fill="#d7d28e" points="-93.866 2150.629 -146.598 2150.629 -146.598 2202.886 -146.598 2235.216 -92.849 2253.101" class="colord7a28e svgShape"></polygon><path fill="#bfb304" d="M-145.219,2216.832c-2.483-1.276-23.03,16.38-11.868,48.237c16.365,46.706,4.857,38.127,4.857,38.127
				h21.284l-1.947-26.519c0,0,11.029,5.352,25.853,25.123c16.386,3.878,45.374,2.923,64.818,1.587
				c16.451-1.084,31.122-12.219,34.75-28.319c2.131-9.484-33.616-3.045-44.817-10.554c-27.91-18.648-40.56-40.869-40.56-40.869
				S-133.793,2222.749-145.219,2216.832z" class="colordba12c svgShape"></path><path fill="#f28705" d="M-100.806,2228.456c11.208,12.212,31.596,36.633,41.652,42.147c10.055,5.514,31.486,4.192,30.189,9.707
				c-1.297,5.514-28.868,5.839-46.216-3.848C-89.521,2268.454-105.065,2223.815-100.806,2228.456z" class="colorffc439 svgShape"></path><path fill="#7c4b2f" d="M-358.228,1234.622c0,0,188.827-15.365,207.73,0c18.903,15.364,66.616,450.598,66.616,450.598
				l-2.951,510.698h-66.17l-63.891-512.65l-120.052-271.341C-336.946,1411.927-400.917,1332.431-358.228,1234.622z" class="color2f627c svgShape"></path><g fill="#8c3503" class="color000000 svgShape"><polygon fill="#d7d28e" points="-310.572 2157.568 -363.103 2152.963 -367.666 2205.02 -370.489 2237.227 -318.508 2259.737" class="colord7a28e svgShape"></polygon><path fill="#bfb304" d="M-367.51,2219.034c-2.361-1.488-24.372,14.307-16.035,47.016c12.224,47.957,1.509,38.406,1.509,38.406
				l21.202,1.858l0.377-26.587c0,0,10.519,6.295,23.56,27.284c15.985,5.295,44.946,6.874,64.432,7.241
				c16.482,0.358,32.069-9.454,37.09-25.176c2.95-9.261-33.222-5.969-43.724-14.427c-26.175-21.014-36.836-44.255-36.836-44.255
				S-356.645,2225.927-367.51,2219.034z" class="colordba12c svgShape"></path><path fill="#f28705" d="M-321.779,2238.84c11.208,12.212,31.597,36.634,41.652,42.148c10.055,5.514,31.487,4.192,30.189,9.707
				c-1.297,5.514-28.868,5.839-46.216-3.849C-310.495,2278.838-326.038,2234.2-321.779,2238.84z" class="colorffc439 svgShape"></path><path fill="#7c4b2f" d="M-434.825,1238.686c0,0,130.339-15.528,147.828,1.428c17.489,16.956,63.192,453.904,63.192,453.904
				l-83.716,509.28l-65.917-5.778l14.515-486.293l-75.901-298.955C-434.825,1412.272-467.91,1341.974-434.825,1238.686z" class="color2f627c svgShape"></path><path fill="#5c2c11" d="M-223.102,1689.74l-8.918-71.483l-119.119-188.164l79.793,282.499c0,0-7.785,16.68-30.166,24.244
				c-22.381,7.563,2.919,18.359,20.435,26.584c17.515,8.226-26.274,3.36-25.301,15.037c0.973,11.677,50.7,21.407,48.218,24.327
				c-2.483,2.919-25.911,257.855-25.911,257.855L-223.102,1689.74z" class="color11405c svgShape"></path></g></g><path fill="#f28705" d="M-470.107,1275.326c1.335,28.976,350.342,41.381,359.459,18.167s-3.907-41.381-13.024-53.493
		s-37.769-151.394-20.838-162.497c16.931-11.102,35.852-57.53,25.496-67.623c-10.356-10.093-7.262-48.446-7.262-48.446
		s-36.664-109.005-61.31-115.06c-24.647-6.056-74.138-8.074-109.302,18.167C-332.054,890.783-474.014,1190.545-470.107,1275.326z" class="colorffc439 svgShape"></path><path fill="#bfb304" d="M-177.463,1025.02c0,0-25.771,36.335-24.119,64.343c1.652,28.008,36.105,194.542,32.554,190
		c-3.551-4.541-44.577-183.187-44.577-190.757C-213.604,1052.271-177.463,1025.02-177.463,1025.02z" class="colordba12c svgShape"></path><polygon fill="#d7d28e" points="-95.798 955.341 -3.997 1037.249 225.5 1129.808 205.143 1176.682 -45.583 1118.565 -162.786 1032.53" class="colord7a28e svgShape"></polygon><g fill="#8c3503" class="color000000 svgShape"><path fill="#d7d28e" d="M281.499,1105.935c5.962,5.994-0.147,12.053-0.147,12.053l-18.676,18.534l61.445,25.63
			c0,0,0.377,7.258-4.655,8.077c-2.303,0.375-33.702-9.101-33.702-9.101l41.021,17.143c0,0-0.691,7.833-5.264,7.137
			c-2.186-0.333-42.126-9.876-42.126-9.876l38.46,15.22c0,0-4.769,7.111-6.462,6.859c-8.73-1.295-39.197-8.84-39.197-8.84
			l28.505,10.009c0,0-1.54,7.303-7.574,5.351c-7.225-2.337-43.319-9.703-53.785-15.448c-13.709-7.526-59.663-18.8-59.663-18.8
			s15.39-45.305,16.499-49.469c5.892,2.043,27.021,9.051,27.021,9.051C241.916,1125.975,255.749,1112.682,281.499,1105.935z" class="colord7a28e svgShape"></path><path fill="#c1bd7c" d="M280.112 1158.512c-.255.651 3.615 2.779 8.644 4.753 5.029 1.974 9.313 3.047 9.568 2.396.256-.651-3.614-2.779-8.643-4.752C284.652 1158.934 280.369 1157.861 280.112 1158.512zM272.902 1172.849c-.226.662 3.483 2.525 8.284 4.163 4.801 1.637 8.876 2.428 9.102 1.766.226-.662-3.483-2.525-8.284-4.163C277.202 1172.978 273.127 1172.187 272.902 1172.849zM265.042 1185.683c-.244.655 2.76 2.383 6.71 3.859 3.95 1.477 7.352 2.143 7.597 1.488.244-.655-2.759-2.383-6.71-3.86C268.689 1185.694 265.287 1185.028 265.042 1185.683z" class="colorc18c7c svgShape"></path><path fill="#c1bd7c" d="M267.839 1180.141c-.757.012-1.135 2.225-2.305 4.368-1.12 2.188-2.703 3.617-2.414 4.242.228.685 3.085-.089 4.651-3.055C269.318 1182.726 268.461 1180.056 267.839 1180.141zM275.124 1168.009c-.757.012-1.135 2.226-2.304 4.369-1.12 2.187-2.703 3.616-2.413 4.242.228.684 3.085-.089 4.65-3.055C276.602 1170.594 275.745 1167.924 275.124 1168.009zM282.043 1154.529c-.757.012-1.135 2.225-2.304 4.368-1.121 2.187-2.703 3.617-2.414 4.242.228.685 3.085-.089 4.651-3.055C283.522 1157.115 282.665 1154.445 282.043 1154.529z" class="colorc18c7c svgShape"></path></g><path fill="#f28705" d="M-174.628,861.02c0,0,134.242,99.15,134.242,123.558c0,24.408-58.441,98.969-73.585,100.272
		c-15.968-9.976-92.075-74.562-92.075-74.562s-42.861-69.585-39.374-95.074C-237.047,854.002-174.628,861.02-174.628,861.02z" class="colorffc439 svgShape"></path><path fill="#bfb304" d="M-237.047 877.82c0 0 55.472-24.533 64.263-16.963 8.791 7.57 4.884 9.768 4.884 9.768S-231.186 883.242-237.047 877.82zM-231.597 949.564c0 0 42.482 65.445 46.354 71.795 3.872 6.349 71.271 63.491 71.271 63.491s-69.387-42.979-74.986-49.328S-231.597 949.564-231.597 949.564z" class="colordba12c svgShape"></path></g><g fill="#8c3503" class="color000000 svgShape"><polygon fill="#f6f091" points="1035.135 2254.342 690.82 2192.96 756.502 1696.538 1057.556 1722.751" class="color91c4f6 svgShape"></polygon><polygon fill="#ece254" points="1057.556 1722.751 1071.227 1734.459 1081.241 1724.815 1108.349 2222.283 1081.709 2228.372 1035.135 2254.342" class="color549bec svgShape"></polygon><path fill="#ece254" d="M833.576 1775.069c0 7.189-4.163 13.018-9.298 13.018-5.136 0-9.299-5.829-9.299-13.018 0-7.19 4.163-13.019 9.299-13.019C829.413 1762.05 833.576 1767.879 833.576 1775.069zM950.231 1780.704c0 6.972-4.037 12.624-9.017 12.624-4.98 0-9.016-5.651-9.016-12.624 0-6.972 4.037-12.623 9.016-12.623C946.194 1768.08 950.231 1773.732 950.231 1780.704z" class="color549bec svgShape"></path><path fill="#fffccd" d="M819.132,1774.75c-3.454,20.29-6.908,40.58-10.362,60.871c-2.968,17.43-6.805,35.019-7.444,52.738
				c-1.149,31.858,14.286,58.756,43.768,71.805c14.956,6.62,31.495,8.967,47.755,8.78c12.179-0.139,26.51-1.194,34.231-12.01
				c8.752-12.26,0.017-24.594-8.595-34.086c-10.075-11.106-33.693-20.376-32.777-37.57c0.626-11.774,9.76-20.646,17.31-28.682
				c6.212-6.611,12.098-13.482,17.5-20.775c9.729-13.136,25.426-32.917,23.486-50.338c-0.501-4.501-7.622-4.552-7.114,0
				c1.647,14.788-12.268,32.522-20.564,44.071c-8.718,12.135-19.911,22.014-28.854,33.878c-6.729,8.927-11.398,20.645-7.435,31.759
				c3.964,11.118,15.278,16.661,23.87,23.649c6.046,4.916,11.896,10.75,16.128,17.319c7.072,10.98,1.314,20.531-10.338,23.977
				c-14.577,4.309-33.69,1.96-48.089-1.769c-32.907-8.522-53.982-34.002-53.227-68.348c0.401-18.245,4.512-36.416,7.565-54.351
				c3.349-19.675,6.698-39.351,10.048-59.026C826.756,1772.163,819.9,1770.239,819.132,1774.75L819.132,1774.75z" class="colorcdeeff svgShape"></path><g fill="#8c3503" class="color000000 svgShape"><polygon fill="#f28705" points="437.802 1982.838 716.557 1923.615 995.31 1964.515 721.465 2058.948" class="colorffc439 svgShape"></polygon><polygon fill="#bfb304" points="729.043 2342.783 1000.344 2276.536 995.31 1964.515 720.505 2022.989" class="colordba12c svgShape"></polygon><polygon fill="#fffccd" points="562.534 1956.338 649.751 1938.325 896.791 1983.862 899.791 2046.556 865.459 2057.166 859.093 2046.945 855.761 2061.434 829.548 2070.497 828.674 2003.354" opacity=".5" class="colorcdeeff svgShape"></polygon><polygon fill="#fffccd" points="859.338 2311.08 859.182 2262.404 876.011 2259.136 879.717 2265.082 881.655 2256.759 925.677 2244.27 930.841 2293.578" opacity=".5" class="colorcdeeff svgShape"></polygon><polygon fill="#f28705" points="437.802 1982.838 446.762 2303.347 729.043 2342.783 720.505 2022.989" class="colorffc439 svgShape"></polygon><path fill="#bfb304" d="M437.802,1982.838l282.703,40.151c0,0-88.201,10.377-146.776,0
				C515.154,2012.611,437.802,1982.838,437.802,1982.838z" class="colordba12c svgShape"></path><g fill="#8c3503" class="color000000 svgShape"><polygon fill="#f28705" points="828.674 2057.984 1049.233 2011.126 1269.791 2043.486 1053.116 2118.205" class="colorffc439 svgShape"></polygon><polygon fill="#bfb304" points="1059.111 2342.783 1273.773 2290.367 1269.791 2043.486 1052.357 2089.752" class="colordba12c svgShape"></polygon><polygon fill="#fffccd" points="927.365 2037.017 996.375 2022.764 1191.839 2058.794 1194.212 2108.399 1167.049 2116.794 1162.011 2108.707 1159.375 2120.172 1138.635 2127.343 1137.943 2074.217" opacity=".5" class="colorcdeeff svgShape"></polygon><polygon fill="#fffccd" points="1162.205 2317.699 1162.082 2279.185 1175.397 2276.599 1178.33 2281.303 1179.863 2274.719 1214.695 2264.836 1218.781 2303.85" opacity=".5" class="colorcdeeff svgShape"></polygon><polygon fill="#f28705" points="828.674 2057.984 835.763 2311.58 1059.111 2342.783 1052.357 2089.752" class="colorffc439 svgShape"></polygon><path fill="#bfb304" d="M828.674,2057.984l223.683,31.769c0,0-69.788,8.211-116.134,0
				C889.877,2081.542,828.674,2057.984,828.674,2057.984z" class="colordba12c svgShape"></path></g></g></g><g fill="#8c3503" class="color000000 svgShape"><path fill="#f28705" d="M705.339,1270.755l-84.682,37.512l4.437,40.931l71.55,161.609l11.485-5.037l84.648-37.509l11.451-5.08
				l-71.594-161.574L705.339,1270.755z M674.861,1316.388c-4.966,2.202-10.766-0.087-12.984-5.027
				c-2.196-5.004,0.012-10.849,5.03-13.069c4.944-2.185,10.833,0.035,13.062,5.035
				C682.133,1308.334,679.879,1314.167,674.861,1316.388z" class="colorffc439 svgShape"></path><path fill="#bfb304" d="M688.792,1363.271l-2.947-6.634l11.496-5.068l2.991,6.599c10.889-2.325,19.413,3.066,24.758,15.231
					l1.266,2.783l-13.338,5.925l-1.666-3.697c-2.82-6.427-6.471-7.737-10.916-5.731c-4.48,1.962-5.959,5.534-3.15,11.946
					c8.161,18.404,36.118,7.104,47.441,32.777c5.343,12.118,3.557,22.283-5.512,28.726l2.912,6.543l-11.529,5.118l-2.923-6.558
					c-11.021,2.428-19.559-3.118-24.938-15.279l-2.679-6.159l13.26-5.842l3.1,7.01c2.863,6.392,6.699,7.487,11.145,5.48
					c4.501-1.98,6.315-5.53,3.474-11.94c-8.162-18.451-36.108-7.137-47.407-32.734
					C678.278,1379.729,679.881,1369.826,688.792,1363.271z" class="colordba12c svgShape"></path><path fill="#f2e633" d="M61.923,551.893L30.213,715.17c0,0,102.707,51.961,106.45,48.201
			c3.743-3.76,68.578-158.156,68.578-158.156L61.923,551.893z" class="colorf2cd33 svgShape"></path><path fill="#bfb304" d="M114.491,623.933c7.141,3.103,9.907,9.488,4.811,17.103c-5.022,7.648-13.005,9.362-20.146,6.259
				c-7.217-3.136-9.982-9.521-4.961-17.169C99.291,622.51,107.349,620.829,114.491,623.933z M138.143,635.104l12.403,5.39
				l-61.333,36.26l-12.403-5.39L138.143,635.104z M103.139,634.013c-2.104,3.197-1.738,5.233,0.518,6.213
				c2.255,0.98,4.67,0.153,6.774-3.044c2.104-3.196,1.662-5.265-0.592-6.245C107.583,629.957,105.244,630.817,103.139,634.013z
				 M128.351,664.629c7.141,3.103,9.832,9.456,4.735,17.071c-5.022,7.648-13.005,9.362-20.146,6.259
				c-7.141-3.103-9.907-9.488-4.81-17.104C113.152,663.208,121.21,661.526,128.351,664.629z M116.925,674.677
				c-2.104,3.197-1.737,5.233,0.593,6.245c2.18,0.947,4.594,0.121,6.698-3.076c2.105-3.197,1.663-5.265-0.517-6.212
				C121.444,670.654,119.029,671.481,116.925,674.677z" class="colordba12c svgShape"></path><g fill="#8c3503" class="color000000 svgShape"><path fill="#f2e633" d="M960.358,464.161l76.202,184.439c0,0,137.185-15.881,138.447-22.12
			c1.261-6.24-35.906-203.686-35.906-203.686L960.358,464.161z" class="colorf2cd33 svgShape"></path><path fill="#bfb304" d="M1060.618,501.532c9.201-1.614,16.192,2.95,16.124,13.944c0.029,10.977-6.831,17.971-16.033,19.586
				c-9.298,1.631-16.289-2.933-16.318-13.91C1044.461,510.157,1051.417,503.146,1060.618,501.532z M1091.686,497.079l15.982-2.804
				l-37.434,76.854l-15.981,2.804L1091.686,497.079z M1055.919,519.13c0.006,4.591,1.72,6.387,4.625,5.877
				c2.906-0.51,4.777-2.934,4.769-7.526c-0.007-4.592-1.816-6.37-4.722-5.86C1057.686,512.13,1055.912,514.538,1055.919,519.13z
				 M1101.402,533.114c9.202-1.614,16.096,2.967,16.028,13.961c0.029,10.978-6.831,17.971-16.033,19.586
				c-9.201,1.614-16.192-2.95-16.124-13.944C1085.244,541.739,1092.201,534.728,1101.402,533.114z M1096.605,550.728
				c0.007,4.592,1.72,6.387,4.722,5.86c2.81-0.493,4.68-2.917,4.673-7.509c-0.007-4.591-1.816-6.37-4.625-5.877
				C1098.469,543.712,1096.599,546.136,1096.605,550.728z" class="colordba12c svgShape"></path></g></g></svg>